<svg xmlns="http://www.w3.org/2000/svg" version="1.1" xmlns:xlink="http://www.w3.org/1999/xlink" xmlns:svgjs="http://svgjs.dev/svgjs" viewBox="0 0 800 800"><defs><linearGradient x1="50%" y1="0%" x2="50%" y2="100%" id="ccchaos-grad"><stop stop-color="hsl(206, 75%, 49%)" stop-opacity="1" offset="0%"></stop><stop stop-color="hsl(331, 90%, 56%)" stop-opacity="1" offset="100%"></stop></linearGradient></defs><g stroke-width="2" stroke="url(#ccchaos-grad)" fill="none" stroke-linecap="round"><path d="M411.48 128.17C421.62 127.2 431.97 125.78 442.5 124.06 453.03 121.72 463.75 119.52 474.57 117.7 485.38 115.98 496.25 115.1 507.07 115.22 517.76 116.03 528.27 118.08 538.44 121.38 548.28 125.53 557.55 130.86 566.05 137.23 573.95 144.22 580.85 151.99 586.56 160.34 591.48 168.89 595.09 177.72 597.37 186.67 598.98 195.41 599.46 204.08 599.02 212.6 598.58 220.69 597.84 228.56 597.23 236.23 597.73 243.43 599.22 250.48 602.11 257.43 607.09 264 613.98 270.59 622.83 277.26 633.71 283.67 646.07 290.28 659.39 297.12 673.12 303.82 686.32 310.85 698.06 318.22 707.8 325.53 714.55 333.23 717.7 341.33 717.49 349.4 713.5 357.89 706.07 366.82 696.56 375.73 685.31 385.08 673.49 394.87 662.92 404.67 654.28 414.7 648.31 424.94 645.81 435.21 646.4 445.71 649.73 456.42 655.75 467.16 663.11 478.13 670.85 489.28 678.7 500.45 685.14 511.78 689.47 523.17 691.75 534.49 691.1 545.78 687.48 556.9 681.43 567.77 672.81 578.26 662.14 588.2 650.07 597.59 636.95 606.16 623.36 613.71 609.77 620.43 596.55 625.9 584.02 630 572.39 633.16 561.77 634.93 552.16 635.35 543.66 635.13 536.02 633.9 529.08 631.91 520.09 629.11 503.8 626.44 495.54 628.71 490.06 632.63 484.12 638.19 477.64 645.37 471.14 654.3 464.05 664.34 456.36 675.03 448.62 686.09 440.29 696.62 431.41 705.91 422.48 713.69 413.03 719.04 403.09 721.48 393.14 721.27 382.97 717.96 372.64 711.87 362.34 703.87 351.9 694.08 341.39 683.21 330.95 672.17 320.48 661.27 310.04 651.08 299.73 642.29 289.53 634.92 279.52 629.11 269.72 625.25 260.22 622.88 251.1 621.76 242.31 622.12 234.01 623.12 226.3 624.39 215.65 626.82 198.24 627.94 191.41 625.37 187.23 622.42 183.49 618.14 180.13 612.6 176.58 606.23 173.16 598.75 169.75 590.34 165.84 581.33 161.77 571.61 157.49 561.39 152.61 550.83 147.54 539.97 142.37 528.96 136.83 517.82 131.44 506.65 126.37 495.56 121.44 484.45 117.17 473.46 113.77 462.67 110.95 451.89 109.19 441.31 108.57 430.96 108.59 420.62 109.65 410.5 111.64 400.62 113.86 390.74 116.58 381.31 119.58 372.33 122.21 363.33 124.79 354.75 127.23 346.59 129.01 338.38 130.61 330.55 132.09 323.08 133.07 315.51 134.17 308.25 135.53 301.26 136.85 294.09 138.76 287.09 141.37 280.23 144.38 273.07 148.3 265.93 153.14 258.75 158.57 251.18 164.9 243.47 172.03 235.6 179.65 227.29 187.9 218.79 196.64 210.13 205.57 201.13 214.78 192.07 224.15 183.04 233.44 173.96 242.74 165.15 252 156.78 261.01 148.75 269.94 141.46 278.79 135.08 287.34 129.42 295.87 124.87 304.39 121.56 312.67 119.06 321.03 117.77 329.53 117.62 337.85 117.99 346.39 119.19 355.19 121.04 363.89 122.76 372.9 124.64 382.27 126.46 391.6 127.49 401.33 128.09 411.47 128.18" stroke-dasharray="6 8" transform="rotate(0, 400, 400)" opacity="0.56"></path><path d="M417.49 139.58C427.38 138.64 437.38 137.27 447.45 135.62 457.53 133.34 467.66 131.18 477.77 129.33 487.84 127.52 497.82 126.47 507.61 126.32 517.22 126.76 526.49 128.36 535.28 131.13 543.72 134.69 551.47 139.41 558.4 145.17 564.77 151.57 570.14 158.8 574.4 166.69 578.05 174.86 580.59 183.42 582.05 192.2 583.15 200.91 583.47 209.63 583.24 218.29 583.33 226.63 583.49 234.81 584.09 242.82 585.97 250.42 588.96 257.87 593.41 265.2 599.78 272.16 607.86 279.09 617.6 286.04 628.95 292.71 641.36 299.5 654.3 306.46 667.26 313.25 679.4 320.29 689.9 327.61 698.37 334.84 703.93 342.41 706.12 350.34 705.27 358.22 701 366.5 693.67 375.19 684.53 383.85 673.86 392.94 662.68 402.47 652.65 412 644.31 421.75 638.34 431.71 635.5 441.69 635.45 451.87 637.95 462.23 643.02 472.61 649.49 483.15 656.54 493.79 663.98 504.42 670.42 515.09 675.18 525.72 678.35 536.22 678.96 546.55 676.91 556.59 672.65 566.3 665.89 575.52 657.02 584.08 646.61 592.09 634.88 599.21 622.34 605.3 609.43 610.64 596.5 614.8 583.89 617.71 571.82 619.87 560.48 620.86 549.95 620.73 540.32 620.23 531.49 619 523.38 617.28 516.06 615.94 509.22 614.72 502.7 613.98 496.68 614.49 490.71 616.06 484.66 618.93 478.82 623.59 472.71 629.72 466.23 637.24 459.81 646.24 452.93 656.13 445.56 666.46 438.17 677 430.28 686.92 421.87 695.59 413.45 702.83 404.53 707.8 395.15 710.07 385.77 709.92 376.17 706.9 366.43 701.31 356.71 693.91 346.89 684.79 337.02 674.54 327.23 664.01 317.45 653.45 307.76 643.38 298.21 634.44 288.82 626.67 279.69 620.26 270.78 615.58 262.21 612.29 254.07 610.22 246.25 609.59 238.93 609.72 232.19 610.29 222.89 612.06 207.72 613.54 201.68 611.97 196.11 608.42 185.82 594.51 180.5 584.45 176.4 576.84 172.1 568.47 167.59 559.49 162.5 550.13 157.26 540.36 151.97 530.31 146.37 520.07 140.98 509.7 135.97 499.29 131.14 488.82 127.01 478.38 123.76 468.06 121.11 457.73 119.51 447.54 119.03 437.53 119.2 427.54 120.37 417.72 122.44 408.11 124.76 398.5 127.55 389.31 130.62 380.54 133.34 371.74 136.02 363.32 138.54 355.27 140.41 347.17 142.09 339.39 143.6 331.91 144.58 324.31 145.61 316.95 146.83 309.78 147.93 302.43 149.51 295.18 151.7 287.99 154.22 280.51 157.56 273.01 161.75 265.43 166.5 257.5 172.14 249.43 178.59 241.22 185.56 232.65 193.21 223.94 201.43 215.15 209.95 206.14 218.84 197.16 227.99 188.32 237.17 179.55 246.46 171.14 255.79 163.27 264.97 155.81 274.11 149.14 283.2 143.41 292.06 138.4 300.89 134.48 309.69 131.73 318.28 129.73 326.91 128.84 335.6 128.99 344.15 129.57 352.83 130.89 361.7 132.76 370.47 134.46 379.49 136.28 388.77 138.01 398.03 138.97 407.59 139.52 417.48 139.59" stroke-dasharray="6 11" transform="rotate(4.04, 400, 400)" opacity="0.36"></path><path d="M421.32 150.99C430.89 150.08 440.46 148.77 450 147.18 459.52 144.98 468.96 142.86 478.27 141.01 487.5 139.14 496.5 137.94 505.17 137.55 513.66 137.66 521.69 138.83 529.14 141.09 536.25 144.09 542.63 148.2 548.17 153.32 553.26 159.1 557.42 165.73 560.61 173.07 563.4 180.78 565.3 188.95 566.4 197.45 567.43 205.98 568 214.63 568.35 223.3 569.29 231.76 570.56 240.14 572.5 248.39 575.77 256.31 580.21 264.1 586.05 271.77 593.59 279.11 602.6 286.39 612.93 293.64 624.47 300.62 636.68 307.66 649.03 314.8 661.1 321.77 672.11 328.91 681.36 336.27 688.59 343.52 693.05 351.05 694.37 358.89 692.96 366.66 688.48 374.79 681.27 383.27 672.53 391.74 662.43 400.59 651.88 409.84 642.36 419.09 634.34 428.53 628.41 438.13 625.27 447.74 624.66 457.51 626.38 467.4 630.54 477.28 636.12 487.24 642.42 497.23 649.34 507.15 655.61 517.02 660.61 526.74 664.41 536.27 666.06 545.54 665.37 554.39 662.73 562.89 657.74 570.81 650.66 578.02 641.99 584.68 631.83 590.47 620.6 595.25 608.73 599.39 596.49 602.46 584.22 604.43 572.17 605.86 560.53 606.32 549.47 605.92 539.07 605.38 529.34 604.35 520.27 603.08 511.88 602.35 504.03 601.92 496.58 602.07 489.64 603.49 482.9 605.95 476.24 609.63 469.86 614.92 463.37 621.51 456.69 629.27 450.12 638.26 443.24 647.93 436.01 657.85 428.79 667.84 421.18 677.15 413.15 685.23 405.12 691.95 396.67 696.55 387.82 698.66 378.97 698.57 369.96 695.83 360.84 690.7 351.76 683.89 342.61 675.42 333.48 665.81 324.42 655.82 315.42 645.65 306.57 635.78 297.86 626.79 289.37 618.75 281.17 611.85 273.19 606.48 265.58 602.35 258.42 599.38 248.34 597.42 231.2 597.7 224.18 598.41 217.86 598.85 207.07 595.45 202.11 591.04 198.49 587.2 194.82 582.36 191.02 576.61 186.68 570.33 182.13 563.25 177.38 555.51 172.11 547.4 166.73 538.78 161.34 529.78 155.74 520.56 150.38 511.09 145.46 501.48 140.77 491.78 136.81 482.02 133.74 472.28 131.27 462.52 129.85 452.82 129.52 443.22 129.82 433.63 131.09 424.16 133.25 414.85 135.64 405.53 138.5 396.58 141.62 387.97 144.42 379.35 147.18 371.05 149.8 363.05 151.77 354.99 153.54 347.19 155.12 339.63 156.14 331.94 157.15 324.42 158.27 317.03 159.2 309.45 160.52 301.93 162.35 294.41 164.41 286.63 167.21 278.8 170.78 270.88 174.85 262.66 179.77 254.32 185.5 245.88 191.74 237.17 198.71 228.4 206.29 219.62 214.24 210.73 222.65 201.97 231.41 193.46 240.3 185.11 249.4 177.21 258.61 169.91 267.78 163.09 276.97 157.09 286.16 152.02 295.2 147.66 304.22 144.34 313.21 142.13 322.04 140.6 330.87 140.07 339.73 140.48 348.47 141.25 357.28 142.65 366.19 144.52 375.04 146.18 384.04 147.92 393.21 149.56 402.36 150.45 411.73 150.95 421.3 150.99" stroke-dasharray="2 11" transform="rotate(8.08, 400, 400)" opacity="0.59"></path><path d="M422.49 162.4C431.69 161.52 440.77 160.27 449.69 158.75 458.59 156.65 467.3 154.59 475.74 152.74 484.1 150.84 492.12 149.52 499.71 148.92 507.12 148.74 514 149.52 520.24 151.3 526.2 153.75 531.44 157.25 535.89 161.73 540.02 166.86 543.34 172.86 545.87 179.59 548.2 186.74 549.89 194.44 551.06 202.53 552.39 210.76 553.56 219.2 554.78 227.75 556.76 236.19 559.26 244.63 562.56 253 567.16 261.13 572.91 269.17 579.92 277.1 588.38 284.76 598.02 292.34 608.66 299.87 620.12 307.16 631.91 314.46 643.51 321.81 654.58 328.99 664.41 336.28 672.43 343.73 678.47 351.06 681.9 358.61 682.45 366.4 680.56 374.13 675.93 382.14 668.89 390.44 660.55 398.73 651.02 407.35 641.07 416.29 632.07 425.24 624.37 434.32 618.5 443.5 615.13 452.68 614 461.95 615.01 471.25 618.3 480.54 622.99 489.82 628.52 499.02 634.83 508.14 640.79 517.1 645.84 525.81 650.05 534.32 652.49 542.46 652.93 550.1 651.71 557.41 648.34 564.08 642.97 570.01 636.06 575.47 627.57 580.07 617.83 583.74 607.26 586.9 596.04 589.13 584.5 590.43 572.88 591.38 561.38 591.57 550.21 591.14 539.43 590.76 529.15 590.12 519.41 589.43 510.22 589.41 501.53 589.8 493.27 590.85 485.48 593.12 477.98 596.4 470.68 600.78 463.67 606.61 456.7 613.53 449.7 621.43 442.83 630.33 435.81 639.71 428.57 649.19 421.38 658.63 413.92 667.34 406.17 674.83 398.42 681.05 390.36 685.29 382 687.25 373.65 687.2 365.2 684.73 356.73 680.05 348.28 673.81 339.84 665.97 331.46 657 323.16 647.58 314.99 637.85 307.01 628.25 299.16 619.32 291.57 611.12 284.31 603.86 277.23 597.91 270.54 593.05 264.3 589.26 255.49 585.94 240.51 583.9 234.3 583.91 228.51 584.12 218.09 581.66 213 578.32 209.2 575.4 205.29 571.6 201.23 566.94 196.63 561.84 191.83 555.97 186.85 549.4 181.43 542.49 175.94 535.01 170.5 527.08 164.92 518.92 159.66 510.43 154.86 501.7 150.35 492.85 146.59 483.85 143.72 474.77 141.46 465.66 140.22 456.52 140.04 447.4 140.46 438.28 141.83 429.21 144.05 420.21 146.5 411.21 149.41 402.49 152.58 394.06 155.45 385.6 158.29 377.39 160.99 369.42 163.08 361.38 164.96 353.54 166.62 345.86 167.72 338.07 168.76 330.38 169.83 322.76 170.66 314.97 171.78 307.19 173.31 299.39 174.97 291.37 177.28 283.28 180.28 275.11 183.69 266.71 187.9 258.23 192.88 249.7 198.35 241 204.56 232.3 211.42 223.68 218.68 215.06 226.47 206.65 234.67 198.58 243.1 190.76 251.82 183.45 260.72 176.8 269.69 170.65 278.75 165.33 287.85 160.94 296.9 157.22 305.95 154.49 314.99 152.78 323.93 151.67 332.86 151.47 341.78 152.11 350.62 153.01 359.48 154.47 368.38 156.32 377.23 157.93 386.16 159.58 395.17 161.12 404.17 161.93 413.27 162.38 422.47 162.4" stroke-dasharray="9 0" transform="rotate(12.12, 400, 400)" opacity="0.60"></path><path d="M420.85 173.81C429.62 172.97 438.17 171.78 446.45 170.34 454.71 168.32 462.67 166.34 470.28 164.52 477.8 162.61 484.9 161.2 491.51 160.42 500.92 160.2 516.39 165.14 522.29 170.45 525.81 174.92 528.68 180.24 530.95 186.32 533.21 192.86 535.07 199.98 536.65 207.57 538.59 215.37 540.59 223.47 542.87 231.76 545.97 240.05 549.72 248.4 554.31 256.75 560.11 264.96 566.95 273.12 574.87 281.2 583.97 289.08 593.96 296.88 604.63 304.63 615.77 312.18 626.94 319.71 637.65 327.25 647.64 334.63 656.28 342.08 663.09 349.62 668.02 357.05 670.51 364.64 670.37 372.39 668.08 380.09 663.37 388 656.53 396.13 648.59 404.25 639.62 412.62 630.27 421.24 621.77 429.86 614.4 438.53 608.62 447.23 605.06 455.93 603.49 464.62 603.84 473.28 606.32 481.89 610.15 490.42 614.88 498.77 620.52 507.03 626.05 515.03 630.96 522.71 635.37 530.18 638.37 537.21 639.71 543.71 639.68 549.88 637.74 555.42 633.95 560.23 628.73 564.64 621.91 568.26 613.77 571.06 604.68 573.48 594.73 575.12 584.22 576.01 573.4 576.73 562.44 576.89 551.55 576.64 540.82 576.6 530.38 576.48 520.33 576.48 510.65 577.21 501.4 578.43 492.55 580.33 484.08 583.39 475.94 587.39 468.06 592.37 460.47 598.61 453.01 605.77 445.64 613.7 438.42 622.43 431.18 631.47 423.86 640.48 416.6 649.35 409.2 657.46 401.64 664.38 394.09 670.12 386.35 674.03 378.43 675.84 370.51 675.84 362.59 673.61 354.73 669.36 346.89 663.66 339.13 656.45 331.51 648.11 323.95 639.27 316.57 630.03 309.43 620.76 302.4 611.98 295.66 603.73 289.27 596.23 283.01 589.83 277.14 584.37 271.69 579.85 263.93 575.27 250.63 570.82 244.96 569.95 239.46 569.65 228.99 567.4 223.61 564.75 219.57 562.5 215.39 559.49 211.04 555.72 206.18 551.61 201.15 546.76 195.98 541.25 190.43 535.44 184.88 529.03 179.45 522.13 173.95 515.01 168.82 507.49 164.19 499.65 159.9 491.69 156.36 483.49 153.71 475.13 151.66 466.71 150.61 458.18 150.58 449.59 151.13 440.99 152.59 432.35 154.86 423.7 157.36 415.05 160.3 406.59 163.5 398.33 166.43 390.05 169.34 381.94 172.12 373.99 174.33 365.99 176.32 358.11 178.1 350.33 179.3 342.45 180.4 334.62 181.48 326.81 182.26 318.87 183.24 310.9 184.54 302.9 185.88 294.73 187.76 286.5 190.24 278.22 193.05 269.78 196.58 261.3 200.83 252.82 205.53 244.27 210.94 235.8 217.01 227.49 223.5 219.27 230.55 211.34 238.07 203.82 245.87 196.61 254.03 189.96 262.46 184 271.02 178.56 279.75 173.93 288.58 170.21 297.43 167.09 306.34 164.91 315.24 163.67 324.12 162.94 332.99 163.02 341.84 163.85 350.65 164.86 359.45 166.34 368.23 168.15 376.99 169.69 385.76 171.24 394.53 172.67 403.3 173.41 412.07 173.81 420.84 173.81" stroke-dasharray="4 0" transform="rotate(16.16, 400, 400)" opacity="0.33"></path><path d="M416.62 185.22C424.91 184.41 432.9 183.29 440.55 181.93 448.18 180.02 455.43 178.11 462.27 176.35 472.2 173.71 489.43 171.46 496.57 172.45 502.94 175.08 512.82 185.64 516.58 193.36 519.11 199.23 521.43 205.71 523.7 212.71 526.44 219.99 529.42 227.62 532.81 235.52 537.04 243.5 541.96 251.62 547.68 259.82 554.47 267.95 562.16 276.08 570.72 284.18 580.16 292.15 590.22 300.07 600.65 307.94 611.28 315.65 621.66 323.33 631.38 331 640.24 338.54 647.69 346.1 653.35 353.7 657.24 361.22 658.89 368.82 658.15 376.52 655.54 384.18 650.79 391.98 644.18 399.92 636.66 407.85 628.23 415.95 619.47 424.21 611.46 432.48 604.42 440.71 598.77 448.89 595.06 457.06 593.1 465.14 592.87 473.1 594.58 481.01 597.59 488.74 601.52 496.23 606.43 503.61 611.43 510.68 616.08 517.36 622.16 526.84 626.37 542.76 623.62 548.91 619.96 552.48 614.76 555.35 608.22 557.52 600.7 559.45 592.19 560.75 582.94 561.48 573.21 562.19 563.11 562.53 552.86 562.63 542.56 563.07 532.36 563.57 522.36 564.3 512.57 565.79 503.08 567.82 493.92 570.51 485.04 574.28 476.46 578.89 468.17 584.36 460.11 590.89 452.26 598.18 444.57 606.05 437.02 614.55 429.56 623.2 422.13 631.71 414.77 640 407.39 647.52 399.97 653.9 392.57 659.17 385.09 662.76 377.54 664.43 370 664.47 362.56 662.48 355.26 658.63 347.97 653.45 340.84 646.84 333.91 639.13 327.02 630.89 320.36 622.16 313.98 613.29 307.67 604.74 301.67 596.55 296.03 588.92 290.46 582.2 285.26 576.26 280.44 571.14 273.49 565.42 261.31 558.6 255.91 556.73 250.46 555.7 239.59 553.02 233.81 550.69 227.26 547.61 212.68 537.92 204.74 531.28 199.14 526.41 193.58 520.96 188.2 514.99 182.84 508.84 177.88 502.23 173.47 495.26 169.42 488.17 166.14 480.77 163.72 473.12 161.9 465.43 161.04 457.54 161.15 449.49 161.82 441.44 163.35 433.26 165.66 424.99 168.19 416.72 171.15 408.55 174.37 400.49 177.35 392.42 180.32 384.44 183.18 376.55 185.5 368.62 187.62 360.74 189.52 352.91 190.85 345 192.05 337.1 193.18 329.2 193.96 321.19 194.88 313.14 196.02 305.07 197.12 296.87 198.65 288.64 200.69 280.38 202.97 272.04 205.88 263.72 209.43 255.46 213.38 247.22 218 239.12 223.26 231.25 228.91 223.54 235.15 216.2 241.89 209.31 248.95 202.78 256.41 196.84 264.19 191.59 272.18 186.86 280.39 182.92 288.76 179.83 297.22 177.3 305.78 175.63 314.38 174.8 323 174.41 331.64 174.73 340.26 175.7 348.87 176.78 357.47 178.26 366.01 180.01 374.55 181.47 383.06 182.91 391.49 184.23 399.94 184.9 408.32 185.24 416.61 185.22" stroke-dasharray="7 2" transform="rotate(20.200000000000003, 400, 400)" opacity="0.08"></path><path d="M410.32 196.63C418.1 195.86 425.53 194.8 432.59 193.53 439.62 191.72 446.26 189.91 452.46 188.21 461.45 185.6 476.96 182.91 483.44 183.4 489.37 185.33 499.22 194.08 503.47 200.77 506.5 205.94 509.5 211.74 512.61 218.08 516.26 224.74 520.24 231.81 524.71 239.21 529.97 246.75 535.9 254.5 542.55 262.39 550.08 270.29 558.33 278.25 567.23 286.23 576.74 294.13 586.6 302.03 596.58 309.89 606.49 317.65 615.96 325.38 624.62 333.08 632.34 340.68 638.64 348.28 643.2 355.89 646.15 363.42 647.04 370.99 645.8 378.61 642.94 386.18 638.2 393.83 631.86 401.55 624.75 409.27 616.86 417.07 608.66 424.94 601.14 432.82 594.44 440.59 588.93 448.22 585.12 455.84 582.85 463.3 582.09 470.55 583.11 477.76 585.33 484.72 588.47 491.37 592.64 497.92 597.03 504.11 601.29 509.87 610.21 524.7 607.94 540.56 601.08 543.52 595.12 545.19 588.12 546.38 580.26 547.16 571.83 548.06 562.85 548.73 553.54 549.32 544.01 550.33 534.38 551.5 524.79 552.98 515.25 555.21 505.87 557.99 496.71 561.39 487.72 565.77 478.97 570.87 470.49 576.7 462.18 583.42 454.08 590.72 446.19 598.46 438.43 606.65 430.81 614.88 423.31 622.86 415.88 630.58 408.52 637.52 401.21 643.37 393.93 648.2 386.67 651.49 379.45 653.02 372.23 653.09 365.21 651.32 358.39 647.85 351.58 643.17 345 637.14 338.66 630.05 332.34 622.42 326.29 614.23 320.54 605.81 314.83 597.57 309.43 589.53 304.36 581.89 299.32 574.97 294.61 568.68 290.24 563.08 283.81 556.39 272.22 547.33 266.84 544.42 261.25 542.5 249.7 538.88 243.48 536.55 236.49 533.79 221.25 525.51 213.16 519.87 207.55 515.76 202.05 511.09 196.79 505.92 191.61 500.61 186.88 494.83 182.71 488.64 178.94 482.36 175.92 475.71 173.76 468.77 172.17 461.77 171.5 454.51 171.75 447.03 172.53 439.53 174.13 431.83 176.47 423.97 179.01 416.1 181.98 408.25 185.2 400.44 188.21 392.62 191.23 384.82 194.16 377.04 196.59 369.24 198.83 361.44 200.86 353.65 202.34 345.8 203.67 337.93 204.89 330.04 205.73 322.08 206.64 314.08 207.7 306.06 208.63 297.99 209.91 289.9 211.59 281.83 213.42 273.75 215.78 265.73 218.72 257.84 221.96 250.04 225.83 242.44 230.29 235.13 235.12 228.05 240.51 221.36 246.41 215.18 252.64 209.36 259.3 204.16 266.33 199.64 273.58 195.6 281.12 192.32 288.87 189.84 296.76 187.85 304.79 186.63 312.91 186.17 321.09 186.06 329.32 186.58 337.55 187.65 345.81 188.77 354.04 190.22 362.22 191.89 370.41 193.25 378.54 194.58 386.56 195.79 394.6 196.37 402.53 196.67 410.31 196.63" stroke-dasharray="8 4" transform="rotate(24.24, 400, 400)" opacity="0.83"></path><path d="M402.73 208.04C409.99 207.31 416.9 206.32 423.42 205.13 429.93 203.44 436.04 201.73 441.74 200.11 450.04 197.55 464.49 194.53 470.69 194.61 476.57 195.91 487.12 202.95 492.18 208.63 495.86 213.09 499.64 218.18 503.64 223.82 508.18 229.8 513.11 236.22 518.53 243.02 524.66 250.01 531.37 257.26 538.69 264.71 546.68 272.23 555.21 279.87 564.16 287.58 573.48 295.27 582.92 303 592.24 310.71 601.31 318.37 609.78 326.02 617.34 333.64 623.92 341.2 629.12 348.73 632.67 356.25 634.76 363.72 634.99 371.18 633.34 378.64 630.29 386.08 625.62 393.52 619.55 400.98 612.87 408.43 605.5 415.9 597.86 423.36 590.81 430.83 584.46 438.12 579.12 445.2 575.25 452.27 572.71 459.11 571.5 465.68 571.88 472.21 573.38 478.45 575.76 484.33 579.16 490.13 582.9 495.54 586.67 500.51 596.44 520 585.09 531.7 575.92 533.35 568.88 534.58 561.19 535.71 553.01 536.87 544.52 538.5 535.76 540.35 526.87 542.56 517.91 545.48 508.96 548.92 500.12 552.94 491.34 557.8 482.71 563.28 474.29 569.36 465.97 576.15 457.84 583.38 449.92 590.9 442.1 598.73 434.44 606.49 426.96 613.95 419.53 621.09 412.23 627.46 405.06 632.81 397.91 637.21 390.86 640.21 383.92 641.61 376.99 641.71 370.31 640.15 363.9 637.04 357.49 632.82 351.35 627.36 345.49 620.88 339.63 613.85 334.05 606.23 328.79 598.3 323.51 590.43 318.54 582.63 313.88 575.09 309.2 568.1 304.8 561.59 300.68 555.63 294.52 548.15 283.01 537.08 277.45 533.12 271.57 530.25 259.19 525.32 252.5 522.71 245.13 519.95 229.39 512.43 221.24 507.47 215.69 503.9 210.32 499.85 205.24 495.32 200.3 490.68 195.83 485.6 191.95 480.09 188.47 474.51 185.74 468.55 183.84 462.25 182.48 455.9 181.99 449.25 182.39 442.31 183.27 435.37 184.92 428.16 187.27 420.72 189.82 413.29 192.78 405.8 195.98 398.28 199.01 390.76 202.06 383.2 205.05 375.62 207.58 368.02 209.94 360.39 212.11 352.73 213.75 345.05 215.22 337.32 216.58 329.57 217.53 321.8 218.48 313.99 219.52 306.19 220.38 298.37 221.48 290.58 222.9 282.85 224.38 275.17 226.3 267.61 228.7 260.22 231.33 252.98 234.51 245.99 238.23 239.34 242.25 232.94 246.81 226.98 251.87 221.54 257.23 216.47 263.04 211.99 269.24 208.19 275.67 204.82 282.43 202.16 289.43 200.24 296.6 198.73 303.96 197.91 311.45 197.77 319.03 197.89 326.7 198.55 334.39 199.69 342.13 200.82 349.87 202.22 357.56 203.79 365.28 205.04 372.93 206.26 380.47 207.35 388.03 207.85 395.46 208.1 402.72 208.04" stroke-dasharray="6 3" transform="rotate(28.28, 400, 400)" opacity="0.48"></path><path d="M394.8 219.45C401.55 218.76 407.97 217.83 414.04 216.73 422.95 214.37 438.99 209.56 446.12 207.68 452.95 206.33 465.33 206.81 471.12 208.91 477.1 212.27 489.76 222.93 496.88 230.04 502.22 235.3 507.95 241.02 514.14 247.14 520.89 253.49 528.13 260.14 535.83 267.03 544.01 274.05 552.53 281.24 561.27 288.53 570.16 295.87 578.97 303.27 587.48 310.69 595.61 318.12 603.03 325.54 609.48 332.95 614.97 340.33 619.13 347.69 621.76 355.01 623.08 362.3 622.76 369.57 620.77 376.8 617.61 384.02 613.04 391.2 607.27 398.34 601.01 405.48 594.16 412.58 587.05 419.62 580.47 426.65 574.47 433.45 569.32 440 565.44 446.53 562.69 452.79 561.09 458.74 561.32 467.45 567.58 482.99 572.31 489.71 583.05 506.93 576.81 518.19 569.73 520.33 564.1 521.99 557.76 523.65 550.85 525.42 543.55 527.67 535.86 530.19 527.92 533.06 519.8 536.59 511.56 540.6 503.31 545.11 495.03 550.34 486.8 556.08 478.69 562.28 470.63 569.04 462.7 576.11 454.95 583.34 447.25 590.76 439.71 598.04 432.36 604.94 425.04 611.52 417.88 617.34 410.88 622.2 403.91 626.2 397.07 628.92 390.4 630.2 383.72 630.33 377.34 628.96 371.26 626.18 365.17 622.41 359.37 617.49 353.86 611.6 348.34 605.17 343.1 598.13 338.15 590.72 333.18 583.28 328.48 575.8 324.04 568.45 319.55 561.51 315.3 554.9 311.26 548.72 307.12 543.18 303.14 538.12 299.3 533.54 293.31 527.86 281.16 519.11 274.81 515.59 267.91 512.65 253.12 506.54 245.29 503 239.82 500.58 234.37 497.79 229.01 494.61 223.6 491.39 218.43 487.75 213.58 483.69 208.92 479.57 204.76 475.03 201.19 470.09 198.04 465.09 195.6 459.71 193.96 453.98 192.84 448.21 192.54 442.11 193.06 435.7 194.03 429.27 195.72 422.55 198.08 415.56 200.62 408.57 203.54 401.47 206.72 394.3 209.74 387.13 212.81 379.88 215.84 372.58 218.46 365.28 220.94 357.91 223.23 350.51 225.04 343.1 226.68 335.64 228.18 328.17 229.27 320.71 230.33 313.24 231.42 305.79 232.27 298.38 233.29 291.03 234.54 283.78 235.77 276.63 237.35 269.64 239.32 262.87 241.44 256.28 244.02 249.98 247.08 244.05 250.38 238.39 254.17 233.19 258.43 228.5 262.94 224.16 267.89 220.4 273.24 217.28 278.81 214.54 284.72 212.45 290.91 211.02 297.27 209.94 303.86 209.46 310.61 209.58 317.48 209.88 324.46 210.64 331.5 211.8 338.61 212.91 345.75 214.24 352.86 215.7 360.01 216.83 367.11 217.93 374.11 218.9 381.14 219.33 388.04 219.52 394.79 219.45" stroke-dasharray="1 3" transform="rotate(32.32, 400, 400)" opacity="0.59"></path><path d="M387.52 230.86C396.77 229.78 413.86 226.16 421.69 223.99 429.25 221.63 443.19 218.29 449.72 217.74 456.28 218.03 469.49 222.08 476.46 225.88 481.47 228.98 486.73 232.65 492.26 236.85 498.23 241.38 504.55 246.37 511.25 251.77 518.38 257.41 525.87 263.39 533.67 269.64 541.76 276.04 550.01 282.65 558.31 289.42 566.57 296.26 574.6 303.21 582.19 310.22 589.31 317.26 595.66 324.33 601.03 331.39 605.48 338.46 608.68 345.52 610.48 352.54 611.14 359.55 610.35 366.53 608.11 373.44 604.89 380.36 600.47 387.21 595.02 393.99 589.18 400.76 582.83 407.46 576.25 414.05 570.13 420.64 564.48 426.96 559.53 433 554.23 441.89 550.29 458.04 551.38 465.24 554.5 472 562.72 483.53 566.63 488.29 568.85 500.85 554.85 511.57 546.72 515.05 540.68 517.89 534.18 521.01 527.33 524.47 520.24 528.52 512.92 532.97 505.47 537.86 497.93 543.33 490.34 549.2 482.78 555.41 475.2 562.05 467.69 568.88 460.3 575.76 452.92 582.74 445.67 589.5 438.58 595.85 431.51 601.87 424.58 607.16 417.83 611.55 411.08 615.17 404.49 617.63 398.06 618.79 391.64 618.94 385.52 617.74 379.7 615.28 373.87 611.94 368.32 607.53 363.06 602.21 357.77 596.37 352.74 589.93 347.98 583.06 343.17 576.1 338.59 569.01 334.24 561.94 329.8 555.14 325.55 548.56 321.47 542.29 317.24 536.52 313.14 531.13 309.12 526.14 302.81 519.68 289.85 509.17 283.06 504.82 275.79 501.11 260.48 493.95 252.55 490.16 247.11 487.66 241.75 484.9 236.53 481.83 228.87 477.08 215.61 465.78 210.47 459.19 206.58 452.2 203.19 436.42 203.77 427.68 204.82 421.74 206.54 415.5 208.88 408.95 211.4 402.41 214.28 395.74 217.41 388.97 220.42 382.2 223.49 375.33 226.54 368.39 229.23 361.46 231.8 354.46 234.22 347.42 236.18 340.4 238 333.34 239.67 326.28 240.93 319.25 242.13 312.24 243.31 305.28 244.23 298.4 245.25 291.6 246.43 284.96 247.51 278.43 248.86 272.1 250.52 266.03 253.29 257.38 261.09 242.3 266.17 236.13 271.98 230.96 285.83 223.97 293.72 222.19 299.24 221.46 305.01 221.27 310.97 221.58 317.05 222.01 323.28 222.83 329.61 223.98 336.01 225.04 342.47 226.27 348.95 227.61 355.47 228.63 361.97 229.59 368.41 230.45 374.87 230.8 381.25 230.95 387.51 230.86" stroke-dasharray="1 6" transform="rotate(36.36, 400, 400)" opacity="0.69"></path><path d="M381.79 242.27C390.41 241.26 406.6 237.95 414.2 235.96 424.25 232.73 433.7 230.47 442.75 229.63 452.3 229.4 462 231.3 472.21 235.35 483.57 240.62 495.99 247.98 509.53 257.06 524.24 267.1 539.67 278.42 555.02 290.57 569.74 303.17 582.52 316.23 591.96 329.41 598.05 342.73 599.3 356.02 595.38 369.05 592.16 375.58 587.91 382.04 582.79 388.4 577.38 394.77 571.52 401.04 565.44 407.18 559.77 413.32 554.48 419.18 549.75 424.75 545.96 430.31 542.95 435.56 540.78 440.5 539.66 450.32 541.31 458.82 544.67 465.96 552.11 475.95 557.41 490.89 551.75 497.49 545.09 503.1 535.82 509.39 524.67 516.76 512.49 526.13 499.28 536.86 485.67 548.71 471.83 561.79 458.03 574.82 444.61 586.67 437.92 592.13 431.33 596.92 424.88 600.86 418.44 604.12 412.13 606.33 405.97 607.38 399.81 607.55 393.93 606.51 388.33 604.35 382.71 601.4 377.35 597.47 372.24 592.71 361.93 581.79 352.5 568.98 343.82 555.48 334.77 542.64 326.18 530.51 317.86 519.55 308.8 510.42 299.65 502.45 290.33 495.37 280.12 489.68 269.71 484.14 259.34 478.34 248.69 473.07 238.74 466.94 230.1 459.75 222.48 452.59 217.08 444.16 214.39 434.45 213.74 426.99 216.5 410.51 219.69 401.52 222.16 395.43 224.99 389.2 228.06 382.87 231.03 376.54 234.08 370.11 237.13 363.62 242.25 350.66 246.91 337.49 250.98 324.36 253.51 311.43 255.88 298.75 258.44 286.69 260.41 275.18 263.34 264.67 267.46 255.61 271.93 247.55 277.94 241.29 285.37 237.14 293.4 234.06 302.71 232.97 312.97 233.75 323.64 234.79 334.96 236.87 346.57 239.52 352.43 240.41 358.32 241.25 364.21 241.99 370.1 242.27 375.97 242.37 381.78 242.27" stroke-dasharray="8 5" transform="rotate(40.400000000000006, 400, 400)" opacity="0.37"></path><path d="M378.33 253.68C389.13 252.08 399.45 250.06 409.29 247.94 419.23 244.94 428.93 242.74 438.54 241.73 448.63 241.1 459.1 242.31 470.15 245.4 482.11 249.49 494.95 255.51 508.57 263.17 522.83 271.71 537.3 281.57 551.19 292.34 564.08 303.6 574.82 315.44 582.29 327.51 586.73 339.78 586.88 352.1 582.58 364.21 575.73 376.37 565.96 388.26 554.64 399.65 544.69 411.03 536.49 421.32 530.86 430.45 528.9 439.53 529.38 447.45 531.5 454.21 537.47 463.94 543.58 480.04 540.21 487.96 535.64 494.47 528.63 501.69 519.68 509.86 509.75 519.67 498.54 530.53 486.63 542.12 474.38 554.52 461.87 566.61 449.48 577.39 437.06 586.82 424.88 593.32 413.14 595.97 401.39 595.56 390.55 591.02 380.58 583.1 370.48 573.32 361.06 561.62 352.21 549.03 343 536.75 334.06 524.8 325.27 513.66 315.83 503.96 306.28 495.21 296.6 487.29 286.27 480.63 275.89 474.27 265.75 467.89 255.58 462.1 246.27 455.76 238.37 448.63 231.54 441.65 226.85 433.64 224.71 424.55 224.18 415.45 226.17 405.23 230.49 393.94 235.41 382.65 241.35 370.88 247.62 358.87 252.85 346.93 257.72 334.86 262.1 322.92 265.03 311.23 267.73 299.91 270.47 289.3 272.47 279.25 275.15 270.26 278.75 262.7 282.43 256.02 287.4 251.02 293.62 247.91 300.25 245.63 308.1 245.06 316.92 246.08 326.06 247.14 335.95 249.06 346.3 251.43 356.78 252.61 367.52 253.43 378.32 253.68" stroke-dasharray="5 9" transform="rotate(44.44, 400, 400)" opacity="0.35"></path><path d="M377.57 265.09C387.63 263.62 397.54 261.82 407.26 259.93 417.11 257.18 426.99 255.1 437.03 253.99 447.47 253.08 458.4 253.73 469.87 256.01 481.99 259.07 494.75 263.86 507.91 270.18 521.29 277.27 534.44 285.66 546.63 295 557.61 304.84 566.36 315.34 572.01 326.18 575.02 337.24 574.28 348.45 569.74 359.54 563.2 370.69 554.19 381.64 543.83 392.14 534.65 402.65 526.83 412.18 521.08 420.69 518.44 429.2 517.88 436.73 518.84 443.33 521.75 450.07 524.7 456.1 526.89 461.61 528.98 467.66 529.2 473.63 527.33 479.8 524.39 487.07 519.29 494.99 512.34 503.7 504.51 513.7 495.29 524.45 485.14 535.58 474.61 547.19 463.56 558.28 452.34 568 441.06 576.44 429.77 582.21 418.66 584.56 407.56 584.27 397.12 580.35 387.32 573.37 377.42 564.69 367.98 554.12 358.93 542.53 349.56 530.98 340.34 519.43 331.18 508.38 321.51 498.39 311.74 489.13 301.92 480.59 291.69 473.12 281.57 466.02 271.87 459.05 262.35 452.69 253.8 446.01 246.72 438.83 240.71 431.84 236.73 424.08 235.12 415.47 234.94 406.87 237.05 397.35 241.29 386.92 246.08 376.5 251.85 365.71 258 354.78 263.28 343.92 268.33 333.05 272.96 322.42 276.29 312.05 279.37 302.14 282.38 293.03 284.57 284.43 287.21 276.9 290.53 270.74 295.81 263.37 312 257.47 322.88 258.51 330.66 259.54 339.26 261.25 348.47 263.32 357.76 264.26 367.51 264.91 377.57 265.09" stroke-dasharray="8 4" transform="rotate(48.48, 400, 400)" opacity="0.51"></path><path d="M379.6 276.5C388.99 275.16 398.49 273.57 408.06 271.93 417.74 269.45 427.67 267.53 437.87 266.41 448.39 265.34 459.4 265.56 470.84 267.17 482.66 269.36 494.86 273.07 507.11 278.17 519.25 283.91 530.82 290.88 541.17 298.82 550.25 307.21 557.13 316.32 561.15 325.87 562.94 335.64 561.5 345.65 556.87 355.66 550.69 365.74 542.45 375.71 533.03 385.37 524.61 395.02 517.21 403.87 511.44 411.9 508.26 419.94 506.8 427.23 506.71 433.83 508.46 440.61 510.48 446.92 512.11 452.94 513.99 459.49 514.53 466.11 513.43 472.99 511.68 480.8 508.07 489.19 502.78 498.17 496.8 508.11 489.4 518.52 480.95 529.04 472.13 539.77 462.59 549.83 452.61 558.51 442.56 566 432.25 571.08 421.86 573.16 411.48 572.98 401.49 569.6 391.91 563.52 382.25 555.9 372.85 546.47 363.69 535.94 354.27 525.24 344.9 514.29 335.55 503.57 325.85 493.58 316.1 484.08 306.41 475.16 296.52 467.11 286.88 459.43 277.81 451.97 269.08 445.07 261.4 438.04 255.18 430.74 250.01 423.65 246.73 416.04 245.62 407.81 245.76 399.61 247.97 390.71 252.1 381.12 256.72 371.53 262.28 361.73 268.26 351.91 273.55 342.17 278.71 332.54 283.55 323.25 287.25 314.21 290.71 305.72 294.04 298.05 297.92 287.75 307.36 273.96 313.86 270.94 318.52 269.81 324.17 269.88 330.72 271.03 337.39 271.96 344.89 273.44 353.1 275.19 361.34 275.91 370.21 276.39 379.6 276.5" stroke-dasharray="4 2" transform="rotate(52.52, 400, 400)" opacity="0.10"></path><path d="M384.18 287.91C392.95 286.7 402.01 285.31 411.31 283.91 420.69 281.73 430.44 280 440.5 278.94 450.77 277.8 461.45 277.73 472.41 278.83 483.51 280.31 494.74 283.11 505.73 287.14 516.37 291.67 526.22 297.35 534.71 303.96 541.97 310.95 547.14 318.7 549.76 326.95 550.54 335.41 548.59 344.21 543.99 353.13 538.22 362.11 530.74 371.1 522.22 379.94 514.55 388.78 507.61 397.03 501.92 404.65 498.34 412.31 496.16 419.44 495.15 426.1 495.81 432.96 496.85 439.56 497.77 446.03 499.19 452.98 499.68 460.09 498.96 467.47 497.92 475.58 495.37 484.16 491.37 493.14 486.87 502.8 481.04 512.68 474.1 522.45 466.86 532.23 458.76 541.25 450.03 548.91 441.22 555.49 431.94 559.93 422.34 561.75 412.74 561.66 403.28 558.8 394.02 553.55 384.71 546.94 375.49 538.63 366.37 529.19 357.08 519.45 347.78 509.28 338.49 499.09 329.01 489.37 319.54 479.92 310.23 470.89 300.91 462.52 291.97 454.47 283.7 446.68 275.88 439.37 269.14 432.06 263.81 424.65 259.47 417.46 256.87 409.94 256.21 402.05 256.64 394.2 258.91 385.86 262.9 377.06 267.33 368.26 272.65 359.43 278.42 350.72 283.64 342.08 288.84 333.67 293.83 325.71 297.85 317.95 301.66 310.8 305.33 304.48 309.7 296.03 319.22 285.22 325.22 283.1 331.84 282.42 349.24 284.98 359.93 287.04 367.31 287.53 375.41 287.86 384.18 287.91" stroke-dasharray="10 8" transform="rotate(56.56, 400, 400)" opacity="0.80"></path><path d="M390.72 299.32C398.89 298.23 407.45 297.05 416.32 295.88 425.24 294 434.55 292.5 444.14 291.55 453.84 290.43 463.82 290.2 473.9 290.92 483.96 291.88 493.9 293.94 503.39 297.08 512.4 300.57 520.48 305.1 527.17 310.51 532.74 316.23 536.41 322.69 537.86 329.72 537.84 336.91 535.56 344.52 531.1 352.37 525.79 360.27 519.05 368.32 511.42 376.38 504.47 384.43 498.03 392.11 492.51 399.37 488.68 406.68 485.93 413.68 484.14 420.39 483.82 427.29 483.92 434.1 484.06 440.89 484.83 448.08 485.01 455.47 484.34 463.09 483.6 471.26 481.69 479.77 478.58 488.5 475.17 497.66 470.57 506.85 464.9 515.76 459.01 524.54 452.21 532.51 444.66 539.2 437.03 544.92 428.78 548.77 420.03 550.34 411.28 550.33 402.46 547.93 393.65 543.45 384.83 537.8 375.96 530.58 367.1 522.25 358.16 513.54 349.18 504.27 340.24 494.81 331.23 485.59 322.3 476.46 313.63 467.59 305.09 459.18 297.02 451.01 289.68 443.09 282.86 435.56 277.09 428.1 272.66 420.67 269.12 413.43 267.15 406.05 266.91 398.48 267.59 390.97 269.88 383.17 273.71 375.13 277.92 367.09 282.96 359.18 288.47 351.54 293.56 343.94 298.73 336.69 303.78 329.96 308.04 323.38 312.15 317.44 316.12 312.31 321.03 305.47 331.05 297.06 336.86 295.59 343 295.13 358.74 297.24 368.43 298.85 375.12 299.14 382.55 299.32 390.72 299.32" stroke-dasharray="5 7" transform="rotate(60.599999999999994, 400, 400)" opacity="0.39"></path><path d="M398.42 310.73C405.99 309.77 413.95 308.77 422.21 307.83 430.51 306.25 439.14 305.01 447.95 304.21 456.79 303.19 465.77 302.89 474.68 303.38 483.44 303.96 491.91 305.47 499.77 307.89 507.12 310.55 513.49 314.12 518.53 318.49 522.6 323.08 525.01 328.4 525.52 334.3 524.91 340.32 522.44 346.83 518.21 353.67 513.39 360.55 507.39 367.7 500.6 375.01 494.38 382.31 488.46 389.44 483.19 396.35 479.24 403.29 476.1 410.11 473.7 416.79 472.55 423.64 471.78 430.52 471.16 437.43 471.19 444.66 470.88 452.08 470 459.68 469.24 467.66 467.61 475.84 465.04 484.09 462.32 492.58 458.61 500.95 453.93 508.92 449.11 516.67 443.4 523.62 436.9 529.38 430.35 534.29 423.1 537.58 415.23 538.93 407.36 538.99 399.27 537.01 391.08 533.24 382.89 528.48 374.58 522.3 366.23 515.08 357.86 507.43 349.45 499.16 341.12 490.58 332.83 482.06 324.68 473.48 316.87 465.02 309.28 456.86 302.21 448.84 295.9 441.03 290.11 433.5 285.32 426.07 281.77 418.76 278.99 411.6 277.6 404.42 277.72 397.22 278.6 390.07 280.88 382.82 284.51 375.5 288.47 368.19 293.21 361.15 298.4 354.49 303.3 347.86 308.35 341.67 313.38 336.02 319.94 328.05 331.74 315.95 337.31 312.12 342.45 309.38 354.26 307.91 361.36 308.74 366.2 309.11 371.7 309.78 377.87 310.62 384.01 310.73 390.86 310.78 398.42 310.73" stroke-dasharray="5 2" transform="rotate(64.64, 400, 400)" opacity="0.22"></path><path d="M406.32 322.14C413.26 321.3 420.53 320.49 428.02 319.75 435.53 318.48 443.27 317.49 451.07 316.88 458.84 316.02 466.6 315.74 474.15 316.1 481.49 316.46 488.41 317.59 494.66 319.48 502.82 322.89 512.29 333.62 512.79 340.7 511.78 345.7 509.27 351.2 505.35 357.11 501.05 363.05 495.76 369.35 489.8 375.94 484.28 382.53 478.91 389.1 473.96 395.6 470.02 402.15 466.64 408.69 463.81 415.22 461.98 421.88 460.49 428.63 459.16 435.46 458.46 442.5 457.58 449.71 456.34 457.01 455.33 464.56 453.7 472.2 451.37 479.78 449.02 487.45 445.87 494.9 441.9 501.89 437.87 508.61 433.03 514.56 427.45 519.43 421.82 523.6 415.5 526.38 408.52 527.52 401.55 527.63 394.29 526.03 386.86 522.91 379.45 518.97 371.88 513.78 364.26 507.63 356.68 501.06 349.08 493.85 341.6 486.25 334.22 478.6 327.04 470.77 320.25 462.94 313.72 455.27 307.73 447.65 302.5 440.19 297.73 432.91 293.9 425.73 291.18 418.7 289.1 411.79 288.22 404.93 288.65 398.17 289.67 391.45 291.91 384.75 295.32 378.14 299 371.53 303.39 365.31 308.23 359.53 312.87 353.78 317.72 348.5 322.63 343.8 329.27 337.15 341.67 327.31 347.59 324.28 353.07 322.03 365.03 320.71 371.89 321.24 379.08 321.58 396.23 322.26 406.32 322.14" stroke-dasharray="6 4" transform="rotate(68.68, 400, 400)" opacity="0.19"></path><path d="M413.43 333.55C425.97 331.51 439.38 330.03 452.74 329.51 465.82 328 478.08 328.64 487.94 331.65 496.13 334.83 500.44 340.67 499.74 348.77 496.79 357.07 489.5 367.33 478.99 379.11 469.86 390.87 461.36 403.11 454.44 415.45 450.6 428.14 447.34 441.43 443.73 454.84 441.18 468.75 436.64 482.47 429.67 494.62 422.64 505.69 412.93 513.44 400.76 516.11 388.58 515.6 375.3 509.67 361.85 499.88 348.65 488.56 335.65 475.1 324.06 461.07 313.52 447.22 305.39 433.36 300.92 420.15 298.48 407.25 300.16 394.64 306.12 382.81 312.97 370.97 321.9 360.92 331.52 353.02 339.81 345.23 348.3 339.75 356.83 336.81 364.08 333.79 372.19 332.83 381.43 333.63 390.25 333.11 400.88 333.16 413.43 333.55" stroke-dasharray="3 2" transform="rotate(72.72, 400, 400)" opacity="0.11"></path><path d="M418.86 344.96C429.97 343.27 441.4 342.24 452.35 342.08 462.98 341.01 472.46 341.67 479.58 344.24 485.41 346.75 487.93 351.49 486.45 358.25 483.51 365.09 477.16 373.82 468.19 384.2 460.25 394.58 452.43 405.7 445.56 417.09 440.95 428.69 436.74 440.83 432.4 452.9 429.09 465.12 424.45 476.92 418.07 487.08 411.77 496.25 403.35 502.56 392.9 504.7 382.45 504.43 371.1 499.74 359.71 491.79 348.6 482.53 337.88 471.21 328.58 459.12 320.22 446.95 314.05 434.53 311.02 422.63 309.54 410.89 311.45 399.52 316.93 389.06 323.11 378.61 331.19 369.96 340.06 363.32 348.06 356.68 356.44 352.06 364.9 349.52 372.41 346.73 380.54 345.6 389.41 345.88 397.93 345.02 407.75 344.75 418.86 344.96" stroke-dasharray="7 0" transform="rotate(76.76, 400, 400)" opacity="0.67"></path><path d="M421.95 356.37C431.54 355.01 440.94 354.36 449.53 354.53 461.35 354.31 474.23 361.1 472.98 368.73 470.25 374.39 464.88 381.78 457.39 390.77 450.63 399.75 443.65 409.55 437.13 419.66 432.17 429.88 427.38 440.51 422.57 450.9 418.62 461.24 413.8 471.02 407.85 479.24 402.05 486.61 394.73 491.62 385.92 493.29 377.11 493.21 367.75 489.61 358.53 483.35 349.56 476.04 341.13 466.87 334.06 456.83 327.74 446.58 323.33 435.94 321.51 425.61 320.79 415.34 322.82 405.4 327.73 396.33 333.18 387.27 340.32 379.87 348.26 374.23 355.7 368.53 363.64 364.51 371.72 362.16 379.16 359.5 387.07 358.15 395.39 357.95 403.46 356.83 412.35 356.31 421.95 356.37" stroke-dasharray="4 10" transform="rotate(80.80000000000001, 400, 400)" opacity="0.10"></path><path d="M422.29 367.78C430.29 366.72 437.73 366.4 444.18 366.83 457.01 370.22 454.85 387.52 446.58 398.18 441.01 405.76 434.99 414.06 429.08 422.63 424.18 431.23 419.25 440.07 414.3 448.58 409.98 456.94 405.13 464.69 399.62 471.07 394.27 476.79 387.94 480.63 380.7 481.88 373.45 481.93 366.02 479.28 358.93 474.54 352.02 469.02 345.74 461.91 340.7 453.95 336.18 445.75 333.26 437.06 332.39 428.5 332.25 419.93 334.26 411.58 338.54 403.94 343.2 396.3 349.3 390.05 356.17 385.24 362.79 380.35 369.96 376.78 377.31 374.51 384.3 371.95 391.63 370.4 399.14 369.81 406.51 368.53 414.3 367.83 422.29 367.78" stroke-dasharray="7 8" transform="rotate(84.84, 400, 400)" opacity="0.32"></path><path d="M419.87 379.19C437.34 377.49 447.12 389.54 435.78 405.77 427.44 418.02 417.33 432.5 407.57 445.69 399.41 458.28 389.39 467.96 377.88 470.47 366.37 469.99 355.59 461.94 348.6 450.27 342.89 437.77 342.59 423.54 349.34 411.19 357.11 398.83 369.05 390.48 381.76 386.34 393.8 381.25 407.13 378.77 419.87 379.19" stroke-dasharray="3 9" transform="rotate(88.88, 400, 400)" opacity="0.17"></path><path d="M414.96 390.6C427.57 389.8 433.29 400.36 424.97 412.82 418.68 422.1 410.49 432.7 402.27 442.02 394.89 450.87 386.44 457.47 377.82 459.06 369.19 458.98 361.96 453.66 357.83 445.62 354.34 437 354.77 426.74 360.14 417.39 366.11 408.04 375.32 401.28 385.24 397.44 394.96 393 405.52 390.53 414.96 390.6" stroke-dasharray="1 8" transform="rotate(92.92, 400, 400)" opacity="0.85"></path><path d="M408.19 402.01C420.58 399.73 423.31 406.18 414.17 418.68 406.22 431.17 392.1 445.21 380.52 447.65 368.92 447.18 363.8 434.54 370.95 421.99 379.18 409.43 395.79 401.58 408.19 402.01" stroke-dasharray="8 9" transform="rotate(96.96, 400, 400)" opacity="0.98"></path></g></svg>